<?xml version="1.0" encoding="UTF-8"?>
<svg xmlns="http://www.w3.org/2000/svg" xmlns:xlink="http://www.w3.org/1999/xlink" xmlns:svgjs="http://svgjs.com/svgjs" version="1.1" width="512" height="512" x="0" y="0" viewBox="0 0 512 512" style="enable-background:new 0 0 512 512" xml:space="preserve" class=""><g><path xmlns="http://www.w3.org/2000/svg" d="m336.167 240c-60.495 0-108.153-56.481-110.152-58.885a8 8 0 0 1 0-10.23c2-2.4 49.657-58.885 110.152-58.885s108.152 56.481 110.151 58.885a8 8 0 0 1 0 10.23c-1.999 2.404-49.657 58.885-110.151 58.885zm-93.174-64c12.783 13.319 50.2 48 93.174 48s80.39-34.681 93.173-48c-12.778-13.314-50.2-48-93.173-48s-80.391 34.681-93.174 48z" fill="#315cc2" data-original="#000000" style="" class=""/><path xmlns="http://www.w3.org/2000/svg" d="m336.167 224a48 48 0 1 1 48-48 48.054 48.054 0 0 1 -48 48zm0-80a32 32 0 1 0 32 32 32.035 32.035 0 0 0 -32-32z" fill="#315cc2" data-original="#000000" style="" class=""/><path xmlns="http://www.w3.org/2000/svg" d="m336.167 200a24 24 0 1 1 24-24 24.027 24.027 0 0 1 -24 24zm0-32a8 8 0 1 0 8 8 8.009 8.009 0 0 0 -8-8z" fill="#315cc2" data-original="#000000" style="" class=""/><path xmlns="http://www.w3.org/2000/svg" d="m336.167 312c-74.991 0-136-61.009-136-136s61.009-136 136-136 136 61.009 136 136-61.01 136-136 136zm0-256a120 120 0 1 0 120 120 120.136 120.136 0 0 0 -120-120z" fill="#315cc2" data-original="#000000" style="" class=""/><path xmlns="http://www.w3.org/2000/svg" d="m336.167 344c-92.636 0-168-75.364-168-168s75.364-168 168-168 168 75.364 168 168-75.367 168-168 168zm0-320c-83.813 0-152 68.187-152 152s68.187 152 152 152 152-68.187 152-152-68.188-152-152-152z" fill="#315cc2" data-original="#000000" style="" class=""/><path xmlns="http://www.w3.org/2000/svg" d="m175.446 366.34a7.975 7.975 0 0 1 -5.656-2.34l-22.62-22.62a8 8 0 0 1 .047-11.361l59.45-58.46a8 8 0 0 1 11.219 11.408l-53.7 52.8 11.314 11.307 53.8-52.889a8 8 0 1 1 11.217 11.41l-59.461 58.45a7.975 7.975 0 0 1 -5.61 2.295z" fill="#315cc2" data-original="#000000" style="" class=""/><path xmlns="http://www.w3.org/2000/svg" d="m53.627 504.155a23.926 23.926 0 0 1 -16.97-7.017l-22.627-22.628a24 24 0 0 1 0-33.942l121.823-121.823a8 8 0 0 1 11.314 0l45.254 45.255a8 8 0 0 1 0 11.313l-121.821 121.824a23.925 23.925 0 0 1 -16.973 7.018zm87.883-168.439-116.167 116.166a8 8 0 0 0 0 11.314l22.627 22.628a8.011 8.011 0 0 0 11.314 0l116.167-116.167z" fill="#315cc2" data-original="#000000" style="" class=""/><path xmlns="http://www.w3.org/2000/svg" d="m70.167 441a8 8 0 0 1 -5.657-13.657l44-44a8 8 0 0 1 11.313 11.314l-44 44a7.974 7.974 0 0 1 -5.656 2.343z" fill="#315cc2" data-original="#000000" style="" class=""/><path xmlns="http://www.w3.org/2000/svg" d="m42.167 469a8 8 0 0 1 -5.657-13.657l8-8a8 8 0 0 1 11.313 11.314l-8 8a7.974 7.974 0 0 1 -5.656 2.343z" fill="#315cc2" data-original="#000000" style="" class=""/></g></svg>