<?xml version="1.0" encoding="UTF-8"?>
<svg xmlns="http://www.w3.org/2000/svg" xmlns:xlink="http://www.w3.org/1999/xlink" xmlns:svgjs="http://svgjs.com/svgjs" version="1.1" width="512" height="512" x="0" y="0" viewBox="0 0 512 512" style="enable-background:new 0 0 512 512" xml:space="preserve" class=""><g><g xmlns="http://www.w3.org/2000/svg"><path d="m496 80h-480a8 8 0 0 0 -8 8v336a8 8 0 0 0 7.99 8h480.02a8 8 0 0 0 7.99-8v-336a8 8 0 0 0 -8-8zm-472 54.13 144.36 86.61-144.36 180.45zm8.65 281.87 149.55-186.95 69.68 41.81a8.015 8.015 0 0 0 8.24 0l69.68-41.81 149.55 186.95zm455.35-14.81-144.36-180.45 144.36-86.61zm0-285.72-232 139.2-232-139.2v-19.47h464z" fill="#a129aa" data-original="#000000" style="" class=""/><path d="m72 120h88a8 8 0 0 0 0-16h-88a8 8 0 0 0 0 16z" fill="#a129aa" data-original="#000000" style="" class=""/><path d="m184 120h8a8 8 0 0 0 0-16h-8a8 8 0 0 0 0 16z" fill="#a129aa" data-original="#000000" style="" class=""/></g></g></svg>