<svg xmlns="http://www.w3.org/2000/svg" xmlns:xlink="http://www.w3.org/1999/xlink" xmlns:svgjs="http://svgjs.com/svgjs" version="1.1" width="390.6115698814392" height="276.56198942661285" style="enable-background:new 0 0 512 512" xml:space="preserve"><rect id="backgroundrect" width="100%" height="100%" x="0" y="0" fill="none" stroke="none" style="" class="selected"/><g class="currentLayer" style=""><title>Layer 1</title><g id="svg_1"><path xmlns="http://www.w3.org/2000/svg" d="m368 154.667969h-352c-8.832031 0-16-7.167969-16-16s7.167969-16 16-16h352c8.832031 0 16 7.167969 16 16s-7.167969 16-16 16zm0 0" fill="#f94a02" data-original="#000000" style="" class="" id="svg_2"/><path xmlns="http://www.w3.org/2000/svg" d="m368 32h-352c-8.832031 0-16-7.167969-16-16s7.167969-16 16-16h352c8.832031 0 16 7.167969 16 16s-7.167969 16-16 16zm0 0" fill="#f94a02" data-original="#000000" style="" class="" id="svg_3"/><path xmlns="http://www.w3.org/2000/svg" d="m368 277.332031h-352c-8.832031 0-16-7.167969-16-16s7.167969-16 16-16h352c8.832031 0 16 7.167969 16 16s-7.167969 16-16 16zm0 0" fill="#f94a02" data-original="#000000" style="" class="" id="svg_4"/></g></g></svg>