<?xml version="1.0" encoding="UTF-8"?>
<svg xmlns="http://www.w3.org/2000/svg" xmlns:xlink="http://www.w3.org/1999/xlink" xmlns:svgjs="http://svgjs.com/svgjs" version="1.1" width="512" height="512" x="0" y="0" viewBox="0 0 512.131 512.131" style="enable-background:new 0 0 512 512" xml:space="preserve"><g><g xmlns="http://www.w3.org/2000/svg"><path d="m271.065 90.065h141.213l-45-45 45-45h-171.213v131.647l-241.065 380.353h512.131l-241.066-380.353zm0-60h68.787l-15 15 15 15h-68.787zm-30 157.687v99.313c0 12.053 4.909 23.816 13.47 32.272 8.323 8.223 19.242 12.732 30.8 12.732.181 0 .666-.004.729-.004 3.976 0 7.714 1.533 10.543 4.328 2.875 2.841 4.459 6.631 4.459 10.672 0 8.271-6.729 15-15 15h-90c-24.813 0-45 20.187-45 45s20.187 45 45 45h120c8.271 0 15 6.729 15 15v15h-276.535zm216.535 294.313h-96.534v-15c0-24.813-20.187-45-45-45h-120c-8.271 0-15-6.729-15-15s6.729-15 15-15h90c24.813 0 45-20.187 45-45 0-12.123-4.75-23.492-13.375-32.013-8.49-8.388-19.698-12.987-31.616-12.987-.188 0-.376.001-.563.003-3.652.045-7.188-1.401-9.893-4.073-2.894-2.859-4.554-6.843-4.554-10.931v-99.313z" fill="#f94a02" data-original="#000000" style=""/></g></g></svg>