<?xml version="1.0" encoding="UTF-8"?>
<svg xmlns="http://www.w3.org/2000/svg" xmlns:xlink="http://www.w3.org/1999/xlink" xmlns:svgjs="http://svgjs.com/svgjs" version="1.1" width="512" height="512" x="0" y="0" viewBox="0 0 512 512" style="enable-background:new 0 0 512 512" xml:space="preserve" class=""><g><g xmlns="http://www.w3.org/2000/svg"><path d="m510.079 110.44c-1.969-3.508-5.265-6.077-9.146-7.132l-89.933-24.43v-32.878c0-8.284-6.716-15-15-15h-280c-8.284 0-15 6.716-15 15v32.878l-89.933 24.431c-3.882 1.055-7.178 3.624-9.146 7.132-1.97 3.508-2.448 7.659-1.327 11.522l101 348.216c.007.025.018.044.026.068 1.832 6.214 7.572 10.753 14.38 10.753h280c6.795 0 12.527-4.521 14.371-10.718.012-.036.024-.066.035-.103l101-348.216c1.12-3.863.643-8.015-1.327-11.523zm-409.079 249.997-67.343-232.177 67.343-18.295zm280 90.563h-250v-390h250zm30-90.562v-250.473l67.344 18.295z" fill="#f94839" data-original="#000000" style="" class=""/><path d="m178 234.745c0 45.57 62.795 86.787 69.956 91.337 2.455 1.56 5.249 2.34 8.044 2.34s5.59-.78 8.045-2.34c7.16-4.55 69.955-45.767 69.955-91.337 0-28.213-22.953-51.166-51.166-51.166-9.549 0-18.836 2.69-26.834 7.611-7.997-4.922-17.284-7.611-26.834-7.611-28.213 0-51.166 22.953-51.166 51.166zm51.166-21.166c6.059 0 11.638 2.48 15.707 6.981 2.844 3.145 6.886 4.94 11.126 4.94 4.24 0 8.282-1.795 11.126-4.939 4.071-4.502 9.649-6.981 15.708-6.981 11.671 0 21.166 9.495 21.166 21.166 0 19.465-26.777 45.23-47.966 60.515-17.909-13.046-48.033-39.372-48.033-60.516 0-11.671 9.495-21.166 21.166-21.166z" fill="#f94839" data-original="#000000" style="" class=""/><circle cx="336" cy="401" r="15" fill="#f94839" data-original="#000000" style="" class=""/><circle cx="186" cy="106" r="15" fill="#f94839" data-original="#000000" style="" class=""/></g></g></svg>