<svg xmlns="http://www.w3.org/2000/svg" xmlns:xlink="http://www.w3.org/1999/xlink" xmlns:svgjs="http://svgjs.com/svgjs" version="1.1" width="512" height="512" style="enable-background:new 0 0 512 512" xml:space="preserve"><rect id="backgroundrect" width="100%" height="100%" x="0" y="0" fill="none" stroke="none"/><g class="currentLayer" style=""><title>Layer 1</title><g id="svg_1" class=""><g xmlns="http://www.w3.org/2000/svg" id="svg_2"><path d="m255.9996337890625,419.9720458984375 c-25.372108459472656,0 -46.01397705078125,20.641870498657227 -46.01397705078125,46.01397705078125 s20.641870498657227,46.01397705078125 46.01397705078125,46.01397705078125 s46.01397705078125,-20.641870498657227 46.01397705078125,-46.01397705078125 s-20.641870498657227,-46.01397705078125 -46.01397705078125,-46.01397705078125 zm0,69.02096557617188 c-12.686054229736328,0 -23.006988525390625,-10.320935249328613 -23.006988525390625,-23.006988525390625 s10.320935249328613,-23.006988525390625 23.006988525390625,-23.006988525390625 s23.006988525390625,10.320935249328613 23.006988525390625,23.006988525390625 s-10.320935249328613,23.006988525390625 -23.006988525390625,23.006988525390625 z" fill="#ffffff" data-original="#000000" style="" class="" id="svg_3"/><path d="m255.9996337890625,119.34739685058594 c-65.96793365478516,0 -119.63634490966797,53.66840744018555 -119.63634490966797,119.63634490966797 v11.503494262695312 h92.0279541015625 v-11.503494262695312 c0,-15.223724365234375 12.384662628173828,-27.608386993408203 27.608386993408203,-27.608386993408203 s27.608386993408203,12.384662628173828 27.608386993408203,27.608386993408203 c0,8.112264633178711 -3.5607149600982666,15.7904634475708 -9.77030086517334,21.067501068115234 l-63.8520622253418,54.28652572631836 v82.6272964477539 h92.0279541015625 v-40.07664108276367 l31.42447853088379,-26.71648406982422 c26.816946029663086,-22.787654876708984 42.19788360595703,-56.02355194091797 42.19788360595703,-91.18819427490234 c0,-65.96793365478516 -53.66840744018555,-119.63634490966797 -119.63634490966797,-119.63634490966797 zm62.538360595703125,193.2947540283203 l-39.531375885009766,33.608612060546875 v27.707317352294922 h-46.01397705078125 v-48.98264694213867 l55.74440002441406,-47.3943977355957 c11.361617088317871,-9.654499053955078 17.87796401977539,-23.72250747680664 17.87796401977539,-38.5972900390625 c0,-27.909778594970703 -22.705596923828125,-50.61537551879883 -50.61537551879883,-50.61537551879883 c-23.95410919189453,0 -44.07448959350586,16.7260799407959 -49.29707336425781,39.111881256103516 h-46.65203857421875 c5.706500053405762,-47.87831115722656 46.56001281738281,-85.12586212158203 95.94911193847656,-85.12586212158203 c53.281883239746094,0 96.62935638427734,43.34746551513672 96.62935638427734,96.62935638427734 c0,28.4013614654541 -12.424541473388672,55.2474479675293 -34.09098815917969,73.65840148925781 z" fill="#ffffff" data-original="#000000" style="" class="" id="svg_4"/></g></g></g></svg>