<?xml version="1.0" encoding="UTF-8"?>
<svg xmlns="http://www.w3.org/2000/svg" xmlns:xlink="http://www.w3.org/1999/xlink" xmlns:svgjs="http://svgjs.com/svgjs" version="1.1" width="512" height="512" x="0" y="0" viewBox="0 0 512 512" style="enable-background:new 0 0 512 512" xml:space="preserve" class=""><g>
<g xmlns="http://www.w3.org/2000/svg">
	<path d="M437.02,74.98C388.667,26.629,324.38,0,256,0S123.333,26.629,74.98,74.98C26.629,123.333,0,187.62,0,256   s26.629,132.667,74.98,181.02C123.333,485.371,187.62,512,256,512s132.667-26.629,181.02-74.98C485.371,388.667,512,324.38,512,256   S485.371,123.333,437.02,74.98z M96.194,415.806C53.508,373.12,30,316.367,30,256S53.508,138.88,96.194,96.194   C138.88,53.508,195.633,30,256,30s117.12,23.508,159.806,66.194C458.492,138.88,482,195.633,482,256   c0,30.202-5.885,59.499-17.111,86.583c-4.041-11.663-10.487-27.39-20.741-49.018c-12.967-27.351-25.718-50.765-26.254-51.748   l-13.168-24.138l-13.168,24.138c-0.536,0.983-13.287,24.397-26.254,51.748c-3.372,7.111-6.319,13.565-8.918,19.468   c-28.486-16.257-63.434-25.07-100.386-25.07c-51.526,0-98.876,17.092-129.908,46.895l20.779,21.638   c25.124-24.127,65.92-38.532,109.129-38.532c32.84,0,64.628,8.379,89.047,23.232c-6.041,17.106-7.056,25.768-7.056,31.216   c0,31.941,22.561,58.699,52.581,65.21C351.864,466.427,305.13,482,256,482C195.633,482,138.88,458.492,96.194,415.806z    M404.728,281.262c18.073,35.646,36.734,77.498,36.734,91.148c0,20.256-16.479,36.736-36.735,36.736   c-20.257,0-36.736-16.479-36.736-36.736C367.99,358.771,386.654,316.913,404.728,281.262z" fill="#315cc2" data-original="#000000" style="" class=""/>
	<path d="M335.485,230.955c32.484,0,58.913-26.428,58.913-58.913h-30c0,15.942-12.971,28.913-28.913,28.913   s-28.912-12.97-28.912-28.913h-30C276.573,204.526,303.001,230.955,335.485,230.955z" fill="#315cc2" data-original="#000000" style="" class=""/>
	<path d="M176.515,230.955c32.484,0,58.912-26.428,58.912-58.913h-30c0,15.942-12.97,28.913-28.912,28.913   s-28.913-12.97-28.913-28.913h-30C117.602,204.526,144.03,230.955,176.515,230.955z" fill="#315cc2" data-original="#000000" style="" class=""/>
</g>















</g></svg>